<?xml version="1.0" encoding="UTF-8" standalone="no"?>
<svg
   width="476.54935"
   height="600.45215"
   viewBox="0 0 476.54935 600.45215"
   version="1.1"
   id="svg3023"
   xmlns:xlink="http://www.w3.org/1999/xlink"
   xmlns="http://www.w3.org/2000/svg"
   xmlns:svg="http://www.w3.org/2000/svg">
  <defs
     id="defs3027">
    <pattern
       xlink:href="#Strips1_5_6"
       id="pattern13175"
       patternTransform="matrix(3.2762287,1.805541,-5.8944633,10.69575,0,0)" />
    <pattern
       xlink:href="#Strips1_5_6"
       id="pattern10491"
       patternTransform="matrix(3.2808855,1.6065468,-0.92135532,1.8815887,-147.45325,101.22108)" />
    <pattern
       patternUnits="userSpaceOnUse"
       width="6"
       height="1"
       patternTransform="translate(0,0) scale(10,10)"
       id="Strips1_5_6">
      <rect
         style="fill:black;stroke:none"
         x="0"
         y="-0.5"
         width="1"
         height="2"
         id="rect7504" />
    </pattern>
  </defs>
  <desc
     id="desc2765">Produce by Acme CAD Converter</desc>
  <g
     id="layer3">
    <path
       style="opacity:0.15;fill:#999999;fill-opacity:1;stroke:none;stroke-width:1.24724;stroke-miterlimit:4;stroke-dasharray:none;stroke-opacity:1;stop-color:#000000"
       d="m 205.55936,30.812125 4.71,6.47 -36.00256,26.240208 8.43256,11.569792 -60.75,44.250005 6.16,9.06 -63.140004,45.99 -44.173615,13.308 29.603615,98.162 12.21,-3.68 4.771237,14.26003 35.998767,-10.85003 -4.340004,-14.4 5.950004,-0.06 v 4.21 h 194.7 v -38.12 l -194.81,0.01 L 90.62666,188.96199 251.37903,71.867779 215.92936,23.252125 Z"
       id="path3817" />
    <path
       style="opacity:0.09;fill:url(#pattern10491);fill-opacity:1;stroke:none;stroke-width:1.24724;stroke-miterlimit:4;stroke-dasharray:none;stroke-opacity:1;stop-color:#000000"
       d="m 205.55936,30.812125 4.71,6.47 -36.00256,26.240208 8.43256,11.569792 -60.75,44.250005 6.16,9.06 -63.14,45.99 -44.17362,13.308 29.60362,98.162 12.21,-3.68 4.77123,14.26003 35.99877,-10.85003 -4.34,-14.4 5.95,-0.06 v 4.21 h 194.7 v -38.12 l -194.81,0.01 L 90.62666,188.96199 251.37903,71.867779 215.92936,23.252125 Z"
       id="path3817-3" />
    <path
       style="opacity:0.15;fill:#999999;fill-opacity:1;fill-rule:nonzero;stroke-width:1.24724;stroke-dasharray:none;stop-color:#000000"
       d="m 396.24936,288.70213 h 37.59 v 125.97 l 25.95996,0.0328 v 31.67725 h -8.75996 v 15.58 h 13.1 v 83.44 l -19.63,-0.35 v 8.09 h -3.7 v 22.25 h -5.7 v 8.31 h -46.18 v -5.02 h -19.81 v -28.71 h 7.44 v -4.92 h -13.35 v -83.09 h -80.05 v -35.03 h 74.06 v 28.32 h 10.05 v -20.49 h 24.98 v 20.49 h 4 z"
       id="path12860" />
    <path
       style="opacity:0.09;fill:url(#pattern13175);fill-opacity:1;fill-rule:nonzero;stroke-width:1.24724;stroke-dasharray:none;stop-color:#000000"
       d="m 396.24936,288.70213 h 37.59 v 125.97 l 25.95996,0.0328 v 31.67725 h -8.75996 v 15.58 h 13.1 v 83.44 l -19.63,-0.35 v 8.09 h -3.7 v 22.25 h -5.7 v 8.31 h -46.18 v -5.02 h -19.81 v -28.71 h 7.44 v -4.92 h -13.35 v -83.09 h -80.05 v -35.03 h 74.06 v 28.32 h 10.05 v -20.49 h 24.98 v 20.49 h 4 z"
       id="path12860-0" />
  </g>
  <g
     id="layer5">
    <path
       style="opacity:1;fill:#f9f9f9;fill-opacity:1;fill-rule:nonzero;stroke:none;stroke-width:1.00157;stroke-dasharray:none;stroke-opacity:1;stop-color:#000000"
       d="m 220.85936,220.73213 0.01,16.5 h -48.99 l -4.97,-16.5 z"
       id="North_Perimeter_360Photo_1_Web" />
    <path
       style="opacity:1;fill:#f9f9f9;fill-opacity:1;fill-rule:nonzero;stroke:none;stroke-width:1.00157;stroke-dasharray:none;stroke-opacity:1;stop-color:#000000"
       d="m 359.92936,248.03213 v 16.5 h -43.74 v -16.5 z"
       id="Buildings_Walkway_360Photo_2_Web" />
    <path
       style="opacity:1;fill:#f9f9f9;fill-opacity:1;fill-rule:nonzero;stroke:none;stroke-width:1.00157;stroke-dasharray:none;stroke-opacity:1;stop-color:#000000"
       d="m 359.92936,248.03213 h 37.04 l 6.71,16.5 h -43.745 z"
       id="Buildings_Walkway_360Photo_3_Web" />
    <path
       style="opacity:1;fill:#f9f9f9;fill-opacity:1;fill-rule:nonzero;stroke:none;stroke-width:1.00157;stroke-dasharray:none;stroke-opacity:1;stop-color:#000000"
       d="m 396.96936,248.03213 h 16.5 l 9.83,24.17 h 27.04 v 16.5 h -16.5 -54.08 v -16.5 h 27.04 z"
       id="Buildings_Walkway_360Photo_4_Web" />
    <path
       style="opacity:1;fill:#f9f9f9;fill-opacity:1;fill-rule:nonzero;stroke:none;stroke-width:1.00157;stroke-dasharray:none;stroke-opacity:1;stop-color:#000000"
       d="m 450.33936,288.70213 v 6.77 l 12.23,56.17 -15.74998,3.43011 -12.98002,-59.60011 v -6.77 z"
       id="South_Perimeter_360Photo_1_Web" />
    <path
       style="opacity:1;fill:#f9f9f9;fill-opacity:1;fill-rule:nonzero;stroke:none;stroke-width:1.00157;stroke-dasharray:none;stroke-opacity:1;stop-color:#000000"
       d="m 462.56936,351.64213 -15.75,3.43 12.98,59.6 h 16.5 z"
       id="South_Perimeter_360Photo_2_Web" />
    <path
       style="opacity:1;fill:#f9f9f9;fill-opacity:1;fill-rule:nonzero;stroke:none;stroke-width:1.00157;stroke-dasharray:none;stroke-opacity:1;stop-color:#000000"
       d="m 476.29936,446.38213 -16.53997,-0.0209 v -31.68914 h 16.53997 z"
       id="South_Perimeter_360Photo_3_Web" />
    <path
       style="opacity:1;fill:#f9f9f9;fill-opacity:1;fill-rule:nonzero;stroke:none;stroke-width:1.00157;stroke-dasharray:none;stroke-opacity:1;stop-color:#000000"
       d="m 476.29936,446.38213 v 15.58 h -25.26 v -15.58 z"
       id="South_Perimeter_360Photo_4_Web" />
    <path
       style="opacity:1;fill:#f9f9f9;fill-opacity:1;fill-rule:nonzero;stroke:none;stroke-width:1.00157;stroke-dasharray:none;stroke-opacity:1;stop-color:#000000"
       d="m 461.00936,545.40213 v 54.8 h -25.9 v -24.80995 h 5.7 v -22.25005 h 3.7 v -7.74 z"
       id="South_Perimeter_360Photo_5_Web" />
    <path
       style="opacity:1;fill:#f9f9f9;fill-opacity:1;fill-rule:nonzero;stroke:none;stroke-width:1.00157;stroke-dasharray:none;stroke-opacity:1;stop-color:#000000"
       d="m 435.10936,600.20213 h -46.18 v -16.49995 h 46.18 z"
       id="South_Perimeter_360Photo_6_Web" />
    <path
       style="opacity:1;fill:#f9f9f9;fill-opacity:1;fill-rule:nonzero;stroke:none;stroke-width:1.00157;stroke-dasharray:none;stroke-opacity:1;stop-color:#000000"
       d="m 388.92936,600.20213 h -36.31 v -21.52 l 36.31,5e-5 z"
       id="South_Perimeter_360Photo_7_Web" />
    <path
       style="opacity:1;fill:#f9f9f9;fill-opacity:1;fill-rule:nonzero;stroke:none;stroke-width:1.00157;stroke-dasharray:none;stroke-opacity:1;stop-color:#000000"
       d="m 346.71936,578.68213 h 22.4 v -28.71 l 7.44,5e-5 v -4.92 h -13.35 v -49.14005 h -16.49 z"
       id="South_Perimeter_360Photo_8_Web" />
    <path
       style="opacity:1;fill:#f9f9f9;fill-opacity:1;fill-rule:nonzero;stroke:none;stroke-width:1.00157;stroke-dasharray:none;stroke-opacity:1;stop-color:#000000"
       d="m 379.75936,288.70213 h 16.49 v 166.55 l -4,5e-5 v -20.49 l -24.98,-5e-5 v -16.5 h 12.49 z"
       id="South_Perimeter_360Photo_9_Web" />
    <path
       style="opacity:1;fill:#f9f9f9;fill-opacity:1;fill-rule:nonzero;stroke:none;stroke-width:1.00157;stroke-dasharray:none;stroke-opacity:1;stop-color:#000000"
       d="m 367.26936,410.44213 h -84.11 v 16.49005 h 74.06 v 28.32 l 10.05,-5e-5 z"
       id="Language_Wing_Side_LinearVideo" />
    <path
       style="opacity:1;fill:#f9f9f9;fill-opacity:1;fill-rule:nonzero;stroke:none;stroke-width:1.00157;stroke-dasharray:none;stroke-opacity:1;stop-color:#000000"
       d="m 283.15936,461.96213 h -33 v -170.12 h 16.5 v 118.6 h 16.5 z"
       id="Language_Wing_Overpass_Entrance_LinearVideo" />
    <path
       style="opacity:1;fill:#f9f9f9;fill-opacity:1;fill-rule:nonzero;stroke:none;stroke-width:1.00157;stroke-dasharray:none;stroke-opacity:1;stop-color:#000000"
       d="m 316.18936,237.22213 h -16.5 v 54.62 h 16.5 z"
       id="Buildings_Walkway_360Photo_1_Web" />
    <path
       style="opacity:1;fill:#f9f9f9;fill-opacity:1;fill-rule:nonzero;stroke:none;stroke-width:1.00157;stroke-dasharray:none;stroke-opacity:1;stop-color:#000000"
       d="m 316.18936,220.73213 v 16.49 h -37.89 v -16.49 z"
       id="North_Perimeter_360Photo_3_Web" />
    <path
       style="opacity:1;fill:#f9f9f9;fill-opacity:1;fill-rule:nonzero;stroke:none;stroke-width:1.00157;stroke-dasharray:none;stroke-opacity:1;stop-color:#000000"
       d="m 299.68936,275.34213 v 16.5 h -40.93 l -8.5e-4,-16.4979 z"
       id="North_Perimeter_360Photo_4_Web" />
    <path
       style="opacity:1;fill:#f9f9f9;fill-opacity:1;fill-rule:nonzero;stroke:none;stroke-width:1.00157;stroke-dasharray:none;stroke-opacity:1;stop-color:#000000"
       d="m 258.74936,275.35213 h -55.02 v 16.49 h 55.03 z"
       id="North_Perimeter_360Photo_5_Web" />
    <path
       style="opacity:1;fill:#f9f9f9;fill-opacity:1;fill-rule:nonzero;stroke:none;stroke-width:1.00157;stroke-dasharray:none;stroke-opacity:1;stop-color:#000000"
       d="m 203.72936,275.35213 h -60.14 c 0,0 0,16.49 0,16.49 h 60.14 z"
       id="North_Perimeter_360Photo_6_Web" />
    <path
       style="opacity:1;fill:#f9f9f9;fill-opacity:1;fill-rule:nonzero;stroke:none;stroke-width:1.00157;stroke-dasharray:none;stroke-opacity:1;stop-color:#000000"
       d="m 143.58936,275.35213 v 16.49 h -38.32 l -6.23,-20.65 h 5.95 l 2.1e-4,4.16 z"
       id="North_Perimeter_360Photo_7_Web" />
    <path
       style="opacity:1;fill:#f9f9f9;fill-opacity:1;fill-rule:nonzero;stroke:none;stroke-width:1.00157;stroke-dasharray:none;stroke-opacity:1;stop-color:#000000"
       d="m 66.949356,296.57213 -28.011229,8.44593 -9.27232,-30.77787 15.790191,-4.76372 4.943358,16.38566 12.210004,-3.68 z"
       id="North_Perimeter_360Photo_8_Web" />
    <path
       style="opacity:1;fill:#f9f9f9;fill-opacity:1;fill-rule:nonzero;stroke:none;stroke-width:1.00157;stroke-dasharray:none;stroke-opacity:1;stop-color:#000000"
       d="m 45.455998,269.47647 -15.146642,-50.23434 -15.8,4.76 15.15,50.24 z"
       id="North_Perimeter_360Photo_9_Web" />
    <path
       style="opacity:1;fill:#f9f9f9;fill-opacity:1;fill-rule:nonzero;stroke:none;stroke-width:1.00157;stroke-dasharray:none;stroke-opacity:1;stop-color:#000000"
       d="m 16.039356,171.91213 -15.79999975,4.76 14.26999975,47.33 15.793353,-4.76026 z"
       id="North_Perimeter_360Photo_10_Web" />
    <path
       style="opacity:1;fill:#f9f9f9;fill-opacity:1;fill-rule:nonzero;stroke:none;stroke-width:1.00157;stroke-dasharray:none;stroke-opacity:1;stop-color:#000000"
       d="m 16.039356,171.91213 44.16,-13.32 59.150004,-43.07 8.76,12.88 -63.140004,45.99 -44.173616,13.308 z"
       id="North_Perimeter_360Photo_11_Web" />
    <path
       style="opacity:1;fill:#f9f9f9;fill-opacity:1;fill-rule:nonzero;stroke:none;stroke-width:1.00157;stroke-dasharray:none;stroke-opacity:1;stop-color:#000000"
       d="m 112.67936,105.69213 60.31,-43.930005 9.71,13.33 -60.75,44.250005 z"
       id="North_Perimeter_360Photo_12_Web" />
    <path
       style="opacity:1;fill:#f9f9f9;fill-opacity:1;fill-rule:nonzero;stroke:none;stroke-width:1.00157;stroke-dasharray:none;stroke-opacity:1;stop-color:#000000"
       d="m 159.82936,43.702125 14.43,19.81 36.01,-26.23 -4.71,-6.47 10.37,-7.56 -9.71,-13.34 z"
       id="North_Perimeter_360Photo_13_Web" />
    <path
       style="opacity:1;fill:#f9f9f9;fill-opacity:1;fill-rule:nonzero;stroke:none;stroke-width:1.00157;stroke-dasharray:none;stroke-opacity:1;stop-color:#000000"
       d="m 206.21936,9.912125 13.34,-9.70999996 45.13,61.95999996 -13.31033,9.705654 z"
       id="North_Perimeter_360Photo_14_Web" />
    <path
       style="opacity:1;fill:#f9f9f9;fill-opacity:1;fill-rule:nonzero;stroke:none;stroke-width:1.00157;stroke-dasharray:none;stroke-opacity:1;stop-color:#000000"
       d="m 264.68936,62.162125 9.71,13.34 -35.4,25.790005 -9.71171,-13.332688 z"
       id="North_Perimeter_360Photo_15_Web" />
    <path
       style="opacity:1;fill:#f9f9f9;fill-opacity:1;fill-rule:nonzero;stroke:none;stroke-width:1.00157;stroke-dasharray:none;stroke-opacity:1;stop-color:#000000"
       d="m 229.28765,87.959442 9.71171,13.332688 -29.01,21.13 -9.72,-13.33 z"
       id="North_Perimeter_360Photo_16_Web" />
    <path
       style="opacity:1;fill:#f9f9f9;fill-opacity:1;fill-rule:nonzero;stroke:none;stroke-width:1.00157;stroke-dasharray:none;stroke-opacity:1;stop-color:#000000"
       d="m 200.26936,109.09213 9.72,13.33 -29.89,21.77 -9.71,-13.33 z"
       id="North_Perimeter_360Photo_17_Web" />
    <path
       style="opacity:1;fill:#f9f9f9;fill-opacity:1;fill-rule:nonzero;stroke:none;stroke-width:1.00157;stroke-dasharray:none;stroke-opacity:1;stop-color:#000000"
       d="m 170.38936,130.86213 -25.08,18.26 5.05,16.73 29.74,-21.66 z"
       id="North_Perimeter_360Photo_18_Web" />
    <path
       style="opacity:1;fill:#f9f9f9;fill-opacity:1;fill-rule:nonzero;stroke:none;stroke-width:1.00157;stroke-dasharray:none;stroke-opacity:1;stop-color:#000000"
       d="m 145.30936,149.12213 26.57,88.11 h -67 l -14.500004,-48.09 z"
       id="North_Courtyard_360Photo_1_Web" />
    <path
       style="opacity:1;fill:#f9f9f9;fill-opacity:1;fill-rule:nonzero;stroke:none;stroke-width:1.00157;stroke-dasharray:none;stroke-opacity:1;stop-color:#000000"
       d="m 220.85936,220.73213 h 57.44 v 16.49 l -57.43,0.01 z"
       id="North_Perimeter_360Photo_2_Web" />
    <path
       style="opacity:0;fill:#fefefe;fill-opacity:1;fill-rule:nonzero;stroke:none;stroke-width:0.710287;stroke-dasharray:none;stroke-opacity:1;stop-color:#000000"
       d="m 293.13489,244.14073 v 24.2828 h -49.16455 l -0.006,-24.27826 z"
       id="North_Roof_360Photo_1_Web" />
  </g>
  <g
     id="layer2"
     style="display:inline;opacity:1;stroke:#8b8b8b;stroke-opacity:1">
    <g
       id="g6033"
       style="display:inline;stroke:#8b8b8b;stroke-opacity:1">
      <path
         d="m 433.83936,288.70213 h 16.5"
         fill="none"
         stroke="#000000"
         stroke-width="0.5"
         id="path2877"
         style="stroke:#8b8b8b;stroke-opacity:1" />
      <path
         d="m 450.33936,272.20213 v 16.5 -16.5 h -27.04 l -9.83,-24.17 h -97.28"
         fill="none"
         stroke="#000000"
         stroke-width="0.5"
         id="path2879"
         style="stroke:#8b8b8b;stroke-opacity:1" />
      <path
         d="m 299.68936,237.22213 h 16.5"
         fill="none"
         stroke="#000000"
         stroke-width="0.5"
         id="path2881"
         style="stroke:#8b8b8b;stroke-opacity:1" />
      <path
         d="m 299.68936,275.34213 v 16.5 z"
         fill="none"
         stroke="#000000"
         stroke-width="0.5"
         id="path2883"
         style="stroke:#8b8b8b;stroke-opacity:1" />
      <path
         d="m 299.68936,291.84213 h 16.5 v -54.62 54.62"
         fill="none"
         stroke="#000000"
         stroke-width="0.5"
         id="path2885"
         style="stroke:#8b8b8b;stroke-opacity:1" />
      <path
         d="m 396.24936,288.70213 h -16.49"
         fill="none"
         stroke="#000000"
         stroke-width="0.5"
         id="path2889"
         style="stroke:#8b8b8b;stroke-opacity:1" />
      <path
         d="m 379.75936,418.26213 v -146.06 h 27.04 l -9.83,-24.17"
         fill="none"
         stroke="#000000"
         stroke-width="0.5"
         id="path2891"
         style="stroke:#8b8b8b;stroke-opacity:1" />
      <path
         d="m 316.18936,264.53213 h 87.49"
         fill="none"
         stroke="#000000"
         stroke-width="0.5"
         id="path2895"
         style="stroke:#8b8b8b;stroke-opacity:1" />
      <path
         d="m 359.92936,264.53213 v -16.5 z"
         fill="none"
         stroke="#000000"
         stroke-width="0.5"
         id="path2897"
         style="stroke:#8b8b8b;stroke-opacity:1" />
      <path
         d="m 283.15936,426.93213 v -16.49 z"
         fill="none"
         stroke="#000000"
         stroke-width="0.5"
         id="path2909"
         style="stroke:#8b8b8b;stroke-opacity:1" />
      <path
         d="m 283.15936,410.44213 h -16.5 v -118.6 118.6"
         fill="none"
         stroke="#000000"
         stroke-width="0.5"
         id="path2911"
         style="stroke:#8b8b8b;stroke-opacity:1" />
      <path
         d="m 367.26936,418.26213 h 12.49 v -146.06"
         fill="none"
         stroke="#000000"
         stroke-width="0.5"
         id="path2913"
         style="stroke:#8b8b8b;stroke-opacity:1" />
      <path
         d="m 283.15936,410.44213 h 84.11 v 24.32 -24.32"
         fill="none"
         stroke="#000000"
         stroke-width="0.5"
         id="path2915"
         style="stroke:#8b8b8b;stroke-opacity:1" />
      <path
         d="m 476.29936,446.38213 h -16.54"
         fill="none"
         stroke="#000000"
         stroke-width="0.5"
         id="path2921"
         style="stroke:#8b8b8b;stroke-opacity:1" />
      <path
         d="m 464.13936,461.96213 h 12.16 v -15.58 15.58"
         fill="none"
         stroke="#000000"
         stroke-width="0.5"
         id="path2923"
         style="stroke:#8b8b8b;stroke-opacity:1" />
      <path
         d="m 433.83936,295.47213 25.96,119.2 h 16.5"
         fill="none"
         stroke="#000000"
         stroke-width="0.5"
         id="path2927"
         style="stroke:#8b8b8b;stroke-opacity:1" />
      <path
         d="m 476.29936,414.67213 v 31.71 -31.71 l -25.96,-119.2 v -6.77 6.77"
         fill="none"
         stroke="#000000"
         stroke-width="0.5"
         id="path2929"
         style="stroke:#8b8b8b;stroke-opacity:1" />
      <path
         d="m 462.56936,351.64213 -15.75,3.43"
         fill="none"
         stroke="#000000"
         stroke-width="0.5"
         id="path2933"
         style="stroke:#8b8b8b;stroke-opacity:1" />
      <path
         d="m 435.10936,583.70213 v 16.5 z"
         fill="none"
         stroke="#000000"
         stroke-width="0.5"
         id="path2935"
         style="stroke:#8b8b8b;stroke-opacity:1" />
      <path
         d="m 435.10936,600.20213 v 0 h 25.9 v -54.8"
         fill="none"
         stroke="#000000"
         stroke-width="0.5"
         id="path2937"
         style="stroke:#8b8b8b;stroke-opacity:1" />
      <path
         d="m 461.00936,600.20213 v -54.8 m 0,0 v 54.8 m 0,0 v 0"
         fill="none"
         stroke="#000000"
         stroke-width="0.5"
         id="path2939"
         style="stroke:#8b8b8b;stroke-opacity:1" />
      <path
         d="m 388.92936,583.70213 v 16.5 z"
         fill="none"
         stroke="#000000"
         stroke-width="0.5"
         id="path2941"
         style="stroke:#8b8b8b;stroke-opacity:1" />
      <path
         d="m 388.92936,600.20213 v 0 h 46.18"
         fill="none"
         stroke="#000000"
         stroke-width="0.5"
         id="path2943"
         style="stroke:#8b8b8b;stroke-opacity:1" />
      <path
         d="m 352.61936,600.20213 v 0 m 36.31,0 h -36.31 v -21.52 21.52"
         fill="none"
         stroke="#000000"
         stroke-width="0.5"
         id="path2947"
         style="stroke:#8b8b8b;stroke-opacity:1" />
      <path
         d="m 363.20936,495.91213 h -16.49 v 82.77"
         fill="none"
         stroke="#000000"
         stroke-width="0.5"
         id="path2949"
         style="stroke:#8b8b8b;stroke-opacity:1" />
      <path
         d="m 369.11936,578.68213 h -22.4 v -82.77"
         fill="none"
         stroke="#000000"
         stroke-width="0.5"
         id="path2953"
         style="stroke:#8b8b8b;stroke-opacity:1" />
      <path
         d="m 258.75936,291.84213 -0.01,-16.49 z"
         fill="none"
         stroke="#000000"
         stroke-width="0.5"
         id="path2959"
         style="stroke:#8b8b8b;stroke-opacity:1" />
      <path
         d="m 143.58936,275.35213 v 16.49 z"
         fill="none"
         stroke="#000000"
         stroke-width="0.5"
         id="path2961"
         style="stroke:#8b8b8b;stroke-opacity:1" />
      <path
         d="m 203.72936,291.84213 v -16.49 z"
         fill="none"
         stroke="#000000"
         stroke-width="0.5"
         id="path2963"
         style="stroke:#8b8b8b;stroke-opacity:1" />
      <path
         d="m 45.459356,269.48213 -15.8,4.76"
         fill="none"
         stroke="#000000"
         stroke-width="0.5"
         id="path2965"
         style="stroke:#8b8b8b;stroke-opacity:1" />
      <path
         d="m 20.799356,187.71213 -4.76,-15.8"
         fill="none"
         stroke="#000000"
         stroke-width="0.5"
         id="path2969"
         style="stroke:#8b8b8b;stroke-opacity:1" />
      <path
         d="m 103.37936,285.59213 1.89,6.25 h 194.42"
         fill="none"
         stroke="#000000"
         stroke-width="0.5"
         id="path2975"
         style="stroke:#8b8b8b;stroke-opacity:1" />
      <path
         d="m 14.509356,224.00213 15.8,-4.76"
         fill="none"
         stroke="#000000"
         stroke-width="0.5"
         id="path2977"
         style="stroke:#8b8b8b;stroke-opacity:1" />
      <path
         d="m 172.98936,61.762125 1.27,1.75"
         fill="none"
         stroke="#000000"
         stroke-width="0.5"
         id="path2983"
         style="stroke:#8b8b8b;stroke-opacity:1" />
      <path
         d="m 215.92936,23.252125 -9.71,-13.34"
         fill="none"
         stroke="#000000"
         stroke-width="0.5"
         id="path2985"
         style="stroke:#8b8b8b;stroke-opacity:1" />
      <path
         d="m 206.21936,9.912125 -46.39,33.79 13.16,18.06"
         fill="none"
         stroke="#000000"
         stroke-width="0.5"
         id="path2987"
         style="stroke:#8b8b8b;stroke-opacity:1" />
      <path
         d="m 150.35936,165.85213 124.04,-90.350005 -54.84,-75.29999996 v 0 l -13.34,9.70999996"
         fill="none"
         stroke="#000000"
         stroke-width="0.5"
         id="path2993"
         style="stroke:#8b8b8b;stroke-opacity:1" />
      <path
         d="m 166.90936,220.73213 h 149.28 v 16.49 -16.49"
         fill="none"
         stroke="#000000"
         stroke-width="0.5"
         id="path2995"
         style="stroke:#8b8b8b;stroke-opacity:1" />
      <path
         d="m 180.09936,144.19213 -9.71,-13.33"
         fill="none"
         stroke="#000000"
         stroke-width="0.5"
         id="path2999"
         style="stroke:#8b8b8b;stroke-opacity:1" />
      <path
         d="m 200.26936,109.09213 9.72,13.33"
         fill="none"
         stroke="#000000"
         stroke-width="0.5"
         id="path3001"
         style="stroke:#8b8b8b;stroke-opacity:1" />
      <path
         d="m 229.28936,87.952125 9.71,13.340005"
         fill="none"
         stroke="#000000"
         stroke-width="0.5"
         id="path3003"
         style="stroke:#8b8b8b;stroke-opacity:1" />
      <path
         d="m 251.35936,71.882125 13.33,-9.72"
         fill="none"
         stroke="#000000"
         stroke-width="0.5"
         id="path3005"
         style="stroke:#8b8b8b;stroke-opacity:1" />
      <path
         d="m 145.30936,149.12213 26.57,88.11"
         fill="none"
         stroke="#000000"
         stroke-width="0.5"
         id="path3007"
         style="stroke:#8b8b8b;stroke-opacity:1" />
      <path
         d="m 278.29936,220.73213 v 16.49 z"
         fill="none"
         stroke="#000000"
         stroke-width="0.5"
         id="path3009"
         style="stroke:#8b8b8b;stroke-opacity:1" />
      <path
         d="m 220.85936,220.73213 0.01,16.5 z"
         fill="none"
         stroke="#000000"
         stroke-width="0.5"
         id="path3011"
         style="stroke:#8b8b8b;stroke-opacity:1" />
      <path
         d="m 66.949356,296.57213 -28.01,8.45 -38.69999975,-128.35 59.95999975,-18.08 59.150004,-43.07"
         fill="none"
         stroke="#000000"
         stroke-width="0.5"
         id="path3013"
         style="stroke:#8b8b8b;stroke-opacity:1" />
      <path
         d="m 121.94936,119.34213 -9.27,-13.65 60.31,-43.930005"
         fill="none"
         stroke="#000000"
         stroke-width="0.5"
         id="path3015"
         style="stroke:#8b8b8b;stroke-opacity:1" />
      <path
         d="m 283.15936,461.96213 h -33 v -170.12 170.12"
         fill="none"
         stroke="#000000"
         stroke-width="0.5"
         id="path3017"
         style="stroke:#8b8b8b;stroke-opacity:1" />
    </g>
  </g>
  <g
     id="layer1"
     style="display:inline">
    <g
       id="g5576"
       style="display:inline;stroke-width:1.00157;stroke-dasharray:none">
      <path
         d="m 32.349356,226.03213 18.05,59.83 12.21,-3.68 4.34,14.39 36.430004,-10.98 -4.340004,-14.4 5.950004,-0.06 v 4.22"
         fill="none"
         stroke="#000000"
         stroke-width="0.5"
         id="path2773"
         style="stroke-width:1.00157;stroke-dasharray:none" />
      <path
         d="m 299.68936,237.22213 v 38.12 m -267.340004,-49.31 -11.55,-38.32 44.17,-13.32 63.140004,-45.99 -6.16,-9.06 60.75,-44.250005 -8.44,-11.58 36.01,-26.23 -4.71,-6.47 10.37,-7.56 35.43,48.63 -160.980004,117.260005 14.500004,48.09 194.81,-0.01 v 38.12 l -194.7,0.01 v -4.22"
         fill="none"
         stroke="#000000"
         stroke-width="0.5"
         id="path2803"
         style="stroke-width:1.00157;stroke-dasharray:none" />
      <path
         d="m 283.15936,461.96213 v -35.03 m 80.05,118.12 v -83.09 h -80.05 v -35.03 h 74.06 v 28.32"
         fill="none"
         stroke="#000000"
         stroke-width="0.5"
         id="path2805"
         style="stroke-width:1.00157;stroke-dasharray:none" />
      <path
         d="m 433.83936,288.70213 v 125.97 h 25.96 l -0.04,31.71 h -8.72 v 15.58 m 0,-15.58 v 15.58 h 13.1 v 83.44 m 0,-83.44 v 83.44 h -19.63 v 7.74 m 0,-7.74 v 7.74 h -3.7 v 22.25 m 0,-22.25 v 22.25 h -5.7 v 8.31 m 0,-8.31 v 8.31 h -46.18 v -5.02"
         fill="none"
         stroke="#000000"
         stroke-width="0.5"
         id="path2817"
         style="stroke-width:1.00157;stroke-dasharray:none" />
      <path
         d="m 396.24936,288.70213 v 166.55 m 37.59,-40.58 v -125.97 h -37.59 v 166.55 h -4 v -20.49"
         fill="none"
         stroke="#000000"
         stroke-width="0.5"
         id="path2821"
         style="stroke-width:1.00157;stroke-dasharray:none" />
      <path
         d="m 369.11936,578.68213 v -28.71"
         fill="none"
         stroke="#000000"
         stroke-width="0.5"
         id="path2833"
         style="stroke-width:1.00157;stroke-dasharray:none" />
      <path
         d="m 369.11936,545.05213 h -5.91 v -83.09"
         fill="none"
         stroke="#000000"
         stroke-width="0.5"
         id="path2845"
         style="stroke-width:1.00157;stroke-dasharray:none" />
      <path
         d="m 357.21936,426.93213 v 28.32 h 10.05 v -20.49 m 0,20.49 v -20.49 h 24.98 v 20.49"
         fill="none"
         stroke="#000000"
         stroke-width="0.5"
         id="path2865"
         style="stroke-width:1.00157;stroke-dasharray:none" />
      <path
         d="m 369.11936,545.05213 h 7.44 v 4.92 h -7.44 v 28.71 h 19.81 v 5.02"
         fill="none"
         stroke="#000000"
         stroke-width="0.5"
         id="path2871"
         style="stroke-width:1.00157;stroke-dasharray:none" />
      <path
         d="m 376.55936,549.97213 v -4.92"
         fill="none"
         stroke="#000000"
         stroke-width="0.5"
         id="path2875"
         style="stroke-width:1.00157;stroke-dasharray:none" />
    </g>
  </g>
  <g
     id="layer4">
    <text
       xml:space="preserve"
       style="font-size:12.563px;line-height:1.25;font-family:sans-serif;text-align:center;text-anchor:middle"
       x="67.510559"
       y="220.34363"
       id="text14321"><tspan
         id="tspan14319"
         x="67.510559"
         y="220.34363">North</tspan><tspan
         x="67.510559"
         y="236.04738"
         id="tspan14377">Building</tspan></text>
    <text
       xml:space="preserve"
       style="font-size:12.563px;line-height:1.25;font-family:sans-serif;text-align:center;text-anchor:middle"
       x="413.62836"
       y="493.21057"
       id="text14325"><tspan
         id="tspan14323"
         x="413.62836"
         y="493.21057">South</tspan><tspan
         x="413.62836"
         y="508.91431"
         id="tspan14379">Building</tspan></text>
  </g>
</svg>
